<?xml version="1.0" standalone="no"?><!DOCTYPE svg PUBLIC "-//W3C//DTD SVG 1.1//EN" "http://www.w3.org/Graphics/SVG/1.1/DTD/svg11.dtd"><svg t="1730471739174" class="icon" viewBox="0 0 1131 1024" version="1.1" xmlns="http://www.w3.org/2000/svg" p-id="1334" xmlns:xlink="http://www.w3.org/1999/xlink" width="26.5078125" height="24"><path d="M1127.518316 436.035368c-4.405895-23.848421-28.106105-48.168421-52.84379-53.423157l-18.405052-4.122948c-43.250526-12.651789-81.623579-40.353684-106.105263-81.098105-24.346947-40.96-30.167579-87.605895-19.536843-130.250105l5.820632-16.774737c7.383579-23.161263-2.209684-55.161263-21.517474-71.060211 0 0-17.354105-14.160842-66.048-41.36421C800.053895 10.900211 779.048421 3.354947 779.048421 3.354947c-23.700211-8.394105-56.993684-0.390737-74.347789 17.421474l-12.840421 13.285053c-32.768 30.100211-76.934737 48.262737-125.776843 48.262737-48.815158 0-93.386105-18.432-126.167579-48.64l-12.43621-12.90779C410.368 2.950737 376.953263-4.917895 353.131789 3.341474c0 0-21.261474 7.545263-70.090105 34.613894-48.828632 27.445895-65.926737 41.606737-65.926737 41.606737-19.307789 15.642947-28.901053 47.386947-21.517473 70.804211l5.322105 16.896c10.374737 42.778947 4.917895 89.168842-19.56379 130.128842-24.468211 40.96-63.218526 68.931368-106.752 81.354105l-17.731368 3.866948c-24.360421 5.389474-48.316632 29.453474-52.857263 53.423157 0 0-4.015158 21.423158-4.015158 75.937685 0 54.501053 4.015158 75.924211 4.015158 75.92421 4.405895 24.064 28.106105 48.128 52.857263 53.423158l17.340632 3.866947c43.52 12.422737 82.539789 40.380632 106.886736 81.610106 24.346947 40.96 30.181053 87.605895 19.550316 130.223158l-5.052631 16.545684c-7.383579 23.161263 2.209684 55.161263 21.517473 71.06021 0 0 17.367579 14.147368 66.061474 41.364211 48.828632 27.189895 69.820632 34.600421 69.820632 34.600421 23.713684 8.394105 56.993684 0.350316 74.347789-17.421474l12.193684-12.665263c33.024-30.234947 77.473684-48.747789 126.423579-48.747789 48.949895 0 93.642105 18.647579 126.423579 48.869052l12.180211 12.665263c17.111579 17.785263 50.526316 25.694316 74.347789 17.434948 0 0 21.248-7.545263 70.090105-34.627369 48.828632-27.176421 65.926737-41.337263 65.926737-41.337263 19.307789-15.683368 28.901053-47.656421 21.517474-71.073684l-5.322105-17.152c-10.374737-42.522947-4.917895-88.899368 19.563789-129.616842 24.346947-40.986947 63.488-69.093053 106.886737-81.596632l17.354105-3.880421c24.346947-5.416421 48.303158-29.480421 52.84379-53.409684 0 0 4.015158-21.423158 4.015158-75.937684-0.269474-54.514526-4.271158-76.058947-4.271158-76.058948zM566.083368 730.273684c-124.483368 0-225.643789-97.603368-225.643789-218.314105 0-120.441263 100.904421-218.085053 225.643789-218.085053 124.496842 0 225.684211 97.643789 225.684211 218.341053-0.269474 120.454737-101.187368 218.058105-225.684211 218.058105z" fill="#000000" p-id="1335"></path></svg>